<?xml version="1.0" encoding="utf-8"?>
<!-- Generator: Adobe Illustrator 27.1.1, SVG Export Plug-In . SVG Version: 6.00 Build 0)  -->
<svg version="1.1" xmlns="http://www.w3.org/2000/svg" xmlns:xlink="http://www.w3.org/1999/xlink" x="0px" y="0px"
	 viewBox="0 0 595.28 841.89" style="enable-background:new 0 0 595.28 841.89;" xml:space="preserve">
<style type="text/css">
	.st0{fill:none;stroke:#FFFFFF;stroke-width:9;stroke-miterlimit:10;}
</style>
<g id="Camada_2">
</g>
<g id="Camada_1">
	<g>
		<path class="st0" d="M189,362.12c-0.01-1.69,0.1-9.64,6.35-16.24c5.49-5.79,12.21-6.83,14.12-7.06c52.59,0,105.18,0,157.76,0
			c2.05,0.49,7.96,2.17,12.71,7.76c5.43,6.4,5.65,13.59,5.65,15.53c0,44.12,0,88.24,0,132.35c-0.34,1.97-1.88,9.5-8.82,15.18
			c-6.25,5.11-13.03,5.58-15.18,5.65c-50,0-100,0-150,0c-1.52-0.07-11.59-0.7-18-9.18c-3.95-5.22-4.5-10.75-4.59-13.06
			C189,449.41,189,405.76,189,362.12z"/>
		<line class="st0" x1="153" y1="378" x2="189" y2="378"/>
		<line class="st0" x1="153" y1="400.94" x2="189" y2="400.94"/>
		<line class="st0" x1="153" y1="424.59" x2="189" y2="424.59"/>
		<line class="st0" x1="153" y1="452.82" x2="189" y2="452.82"/>
		<line class="st0" x1="153" y1="475.76" x2="189" y2="475.76"/>
		<line class="st0" x1="424.06" y1="475.76" x2="385.59" y2="475.76"/>
		<line class="st0" x1="424.06" y1="452.82" x2="385.59" y2="452.82"/>
		<line class="st0" x1="424.06" y1="427.43" x2="385.59" y2="427.43"/>
		<line class="st0" x1="424.06" y1="400.94" x2="385.59" y2="400.94"/>
		<polyline class="st0" points="239.91,399.35 239.91,465 326.91,465 		"/>
		<circle class="st0" cx="336.18" cy="390.09" r="9.26"/>
		<circle class="st0" cx="286.76" cy="424.06" r="9.26"/>
		<circle class="st0" cx="239.91" cy="390.09" r="9.26"/>
		<line class="st0" x1="293.75" y1="417.98" x2="328.79" y2="395.68"/>
		<circle class="st0" cx="336.18" cy="465" r="9.26"/>
		<path class="st0" d="M77.53,428.14c-0.38-117.54,96.57-215.87,214.59-215.29c116.53,0.57,211.72,97.38,212.47,213.18
			c0.76,116.95-95.03,215.81-213.18,216C173.89,642.21,77.91,544.7,77.53,428.14z"/>
		<line class="st0" x1="424.06" y1="378" x2="385.59" y2="378"/>
	</g>
</g>
</svg>
